<svg width="256" height="256" fill="none" viewBox="0 0 256 256">
  <path fill="#fff" d="M256 128C256 57.3 198.7 0 128.03 0 57.3 0 0 57.3 0 128s57.3 128 128.03 128C198.69 256 256 198.7 256 128Z"/>
  <path fill="#1F357A" d="M245.35 128c0-64.82-52.54-117.36-117.32-117.36-64.86 0-117.4 52.54-117.4 117.35 0 64.82 52.54 117.36 117.4 117.36 64.78 0 117.32-52.54 117.32-117.36v.01ZM128.03 247.03c-65.79 0-119.07-53.3-119.07-119.05C8.96 62.25 62.24 8.96 128.03 8.96c65.72 0 119.01 53.29 119.01 119.03 0 65.75-53.3 119.05-119.01 119.05v-.01Zm94.8-77.07a3.43 3.43 0 1 1-.47-1.25c.24.39.4.81.47 1.26v-.01Zm-183.23 2.3a3.43 3.43 0 1 1-6-3.33 3.43 3.43 0 0 1 6 3.33Zm125.85 51.59a5.16 5.16 0 0 1-.23 3.9c-.58 1.29-1.75 2.23-3.53 2.8-2.17.73-3.92.52-5.24-.63a6.34 6.34 0 0 1-1.74-2.73l2.97-.97c.22.6.48 1.07.81 1.42.63.62 1.4.78 2.38.46.6-.2 1.05-.57 1.36-1.14.3-.55.33-1.2.08-1.98-.34-1.02-.97-1.55-1.9-1.62-.54-.04-1.3.1-2.3.44l-.73-2.17c.7-.2 1.37-.53 1.96-.97.59-.52.72-1.24.4-2.15-.14-.53-.5-.99-.97-1.27-.45-.25-1-.28-1.62-.06-.73.23-1.18.63-1.36 1.2a3 3 0 0 0 .11 1.98l-2.83.93a7.92 7.92 0 0 1-.32-2.31 4.5 4.5 0 0 1 1.75-3.37 7.05 7.05 0 0 1 1.9-.95 5.79 5.79 0 0 1 3.96-.03 4.11 4.11 0 0 1 2.38 2.63c.3.91.28 1.76-.06 2.58-.2.5-.47.88-.8 1.14.28-.09.75.02 1.44.31a4.07 4.07 0 0 1 2.13 2.56Zm-24.68 7.93c-.38.57-.89.9-1.6.98a2.27 2.27 0 0 1-1.88-.63 3.3 3.3 0 0 1-.92-2.07c-.1-1.07.13-1.88.68-2.43.4-.38.86-.6 1.4-.65.67-.08 1.27.11 1.78.58.51.44.82 1.15.92 2.09a3.3 3.3 0 0 1-.38 2.13Zm1.8-6.33a4.66 4.66 0 0 0-3.69-1.09c-.6.05-1.2.22-1.74.5-.5.28-.93.68-1.26 1.17-.05-1.24.02-2.2.17-2.88.34-1.2 1-1.86 2.06-1.96.67-.08 1.2.12 1.61.6.23.27.38.56.4.82l3.16-.33a4.34 4.34 0 0 0-1.82-2.92c-1-.68-2.22-.93-3.73-.78-1.04.1-1.9.44-2.6 1a5.4 5.4 0 0 0-1.62 2.07 9.34 9.34 0 0 0-.7 3.57c-.04.78.01 1.77.15 3.01.21 2.1.77 3.79 1.66 5.04a4.85 4.85 0 0 0 4.78 2.08c1.9-.2 3.22-.91 4.01-2.17a6.5 6.5 0 0 0 .93-4.13 5.28 5.28 0 0 0-1.78-3.6h.01Zm-22.93-1.99c-.07.6-.3 1.06-.7 1.38-.4.34-.92.47-1.57.41a2 2 0 0 1-1.43-.73c-.32-.4-.45-.9-.4-1.5.08-.63.32-1.12.71-1.44.4-.32.93-.45 1.57-.38s1.12.31 1.44.7c.31.4.44.94.38 1.56Zm-.45 6.99a2.6 2.6 0 0 1-.82 1.78c-.46.4-1.05.55-1.77.48a2.24 2.24 0 0 1-1.65-.85 2.6 2.6 0 0 1-.43-1.91c.1-.83.37-1.44.83-1.81a2.33 2.33 0 0 1 1.77-.47c.71.08 1.26.36 1.63.83.39.47.54 1.12.44 1.95Zm-1.1-11.81c-1.63-.17-2.93.1-3.9.85a3.92 3.92 0 0 0-1.65 2.86c-.05.53 0 1.1.17 1.73a3.9 3.9 0 0 0 1.35 1.85c-.84.3-1.5.78-1.99 1.48a5.2 5.2 0 0 0-.73 4.32c.18.63.49 1.2.9 1.71.82 1.04 2.13 1.67 3.94 1.87 1.8.2 3.29-.14 4.38-.99a4.67 4.67 0 0 0 1.88-3.31c.11-.9 0-1.75-.32-2.54a4.71 4.71 0 0 0-1.62-1.95 3.3 3.3 0 0 0 1.67-1.43c.31-.57.47-1.14.53-1.66a3.83 3.83 0 0 0-1-3.15c-.8-.92-2-1.47-3.62-1.64h.01Zm-19.25-4.14 2.53.84-5.13 15.44-3.1-1.03 3.54-10.66-3.63-1.2.7-2.07c.96.29 1.64.45 2.05.48.65.07 1.25-.03 1.76-.3.35-.2.68-.51.96-.92.16-.26.28-.45.32-.58Zm138.14-60.58-.7 2.8-2.56-.64.72-2.8 2.54.64Zm-20.04-5.3 15.77 3.95-.81 3.28-15.8-3.94.84-3.29Zm15.82-11.17c.1-.75 0-1.51-.33-2.2-.3-.55-.78-.85-1.4-.93a1.37 1.37 0 0 0-1.36.67 9.3 9.3 0 0 0-.88 2.1l-.94 2.78a6.8 6.8 0 0 1-1.44 2.7c-.84.89-1.98 1.27-3.43 1.14a4.68 4.68 0 0 1-3.53-2.06c-.88-1.23-1.22-2.9-1.02-4.98.2-2.14.84-3.78 1.9-4.9a4.81 4.81 0 0 1 4.15-1.48l-.3 3.25a3.3 3.3 0 0 0-1.73.45c-.7.5-1.12 1.44-1.27 2.8a7.1 7.1 0 0 0 .1 2.01c.24.98.83 1.53 1.76 1.62.52.05.96-.15 1.3-.6.32-.44.63-1.17.96-2.17l.55-1.73c.53-1.68 1.06-2.84 1.57-3.42.83-1.03 2.07-1.48 3.65-1.34 1.46.14 2.61.77 3.47 1.94.87 1.17 1.2 2.76 1.01 4.84a7.15 7.15 0 0 1-1.75 4.3 4.93 4.93 0 0 1-4.12 1.57l.3-3.26c.99.02 1.7-.34 2.18-1.11.36-.6.57-1.3.6-2v.01Zm-14.63-24.95 16.16-1.74 1.28 11.87-2.87.3-.91-8.55-3.44.35.86 7.88-2.83.3-.84-7.87-4.14.45.96 8.96-2.93.3-1.3-12.25Zm10.35-13.87-12.79 3.98-1.02-3.27 12.81-3.97-1.46-4.68 2.75-.85 3.92 12.59-2.76.86-1.45-4.66Zm-18.96-11.72 14.67-7.06 1.46 3.04L211 89.97l-1.47-3.06h-.01Zm17.68-5.02-1.24-2.6 2.35-1.14 1.25 2.6-2.36 1.14Zm-22.8-9.75c-.22.84.06 1.83.85 2.94.46.68.9 1.2 1.32 1.5.81.62 1.63.65 2.39.14.45-.31.66-.73.62-1.3a7.2 7.2 0 0 0-.65-2.3l-.68-1.66c-.67-1.64-1-2.86-.99-3.65-.01-1.32.64-2.45 1.96-3.35a4.74 4.74 0 0 1 3.91-.75c1.4.34 2.69 1.37 3.86 3.09a7.26 7.26 0 0 1 1.41 4.43 4.93 4.93 0 0 1-2.17 3.84l-1.87-2.7c.78-.6 1.11-1.36.98-2.26a4.48 4.48 0 0 0-.81-1.9 3.6 3.6 0 0 0-1.66-1.48 1.67 1.67 0 0 0-1.68.18c-.48.33-.67.79-.62 1.4.04.39.27 1.1.68 2.16l1.06 2.73c.46 1.2.68 2.2.63 2.98a3.97 3.97 0 0 1-1.9 3.09 4.75 4.75 0 0 1-4.05.7c-1.46-.4-2.8-1.45-3.97-3.2-1.21-1.76-1.78-3.41-1.67-4.99.11-1.56.85-2.8 2.24-3.77l1.84 2.67c-.56.51-.89 1-1.02 1.46h-.01Zm-6.35-22 2.74 2.58c.48.49.8.92.92 1.3.22.68 0 1.37-.69 2.08-.62.65-1.29.88-1.97.65-.37-.1-.83-.43-1.36-.93l-2.66-2.51 3.02-3.17Zm-9.28 9.73 4.42-4.63 2.4 2.3c.67.65 1.03 1.23 1.03 1.7.03.51-.32 1.13-1.03 1.9l-1.05 1.1a8.1 8.1 0 0 0-1.29 1.91l2.72 2.57.28-.29c-.1-.38-.03-.74.2-1.11.13-.24.45-.62.96-1.16l.77-.78a5.63 5.63 0 0 0 1.41-2.17c.14-.61.07-1.29-.26-2.03.84.4 1.7.45 2.48.19.8-.27 1.47-.7 1.98-1.24a4.47 4.47 0 0 0 1.02-4.88 7.2 7.2 0 0 0-1.58-2.09l-5.62-5.37-11.24 11.78 2.4 2.3Zm-17.54-12.44 8.6-13.83 10.13 6.29-1.52 2.44-7.32-4.54-1.82 2.94 6.7 4.17-1.47 2.4-6.72-4.17-2.2 3.56 7.63 4.75-1.53 2.47-10.48-6.48ZM161.3 43l-3.02-1.13.53-17.15 3.37 1.25-.97 12.82 7.63-10.34 3.32 1.22L161.3 43Zm-13.42-4.1-3.31-.66 3.24-15.96 3.3.68-3.23 15.95v-.01Zm3.37-17.78-2.82-.58.53-2.57 2.81.58-.52 2.57ZM128.36 36.7l-3.15-.12.63-16.26 3.56.14 6.01 11.6.45-11.35 3.18.14-.65 16.26-3.4-.14-6.17-11.8-.46 11.53Zm-23.48-3.66-1.7-9.86 3.4-.6 1.7 9.86c.19 1.1.47 1.88.81 2.35.57.82 1.52 1.12 2.9.89 1.34-.25 2.13-.84 2.38-1.81.18-.56.18-1.38-.04-2.48l-1.7-9.85 3.42-.6 1.72 9.85c.28 1.72.25 3.1-.12 4.13-.68 1.92-2.42 3.11-5.18 3.6-2.77.48-4.82-.07-6.1-1.64a8.32 8.32 0 0 1-1.5-3.84h.01Zm.89-11.85-.46-2.57 2.85-.5.44 2.57-2.83.5Zm4.35-.75-.44-2.58 2.83-.48.45 2.57-2.84.5v-.01ZM80.57 31.48l3.04-1.45 6.97 14.71-3.06 1.45-6.95-14.7v-.01Zm-.55-1.78-1.13-2.36 2.62-1.22 1.1 2.35-2.59 1.23ZM65.94 50.23c-1.63-2.35-2.24-4.58-1.88-6.7a6.6 6.6 0 0 1 3-4.48c2.21-1.55 4.37-1.94 6.42-1.16a5.78 5.78 0 0 1 2.63 1.87l-2.79 1.93a4.7 4.7 0 0 0-1.7-.99c-.9-.23-1.83-.02-2.8.66a3.29 3.29 0 0 0-1.53 2.86c0 1.21.5 2.58 1.53 4.08 1.04 1.5 2.12 2.42 3.24 2.75 1.13.34 2.16.17 3.09-.47.96-.67 1.48-1.49 1.55-2.48.04-.54-.1-1.21-.37-2.03l2.78-1.92c.75 1.62.96 3.24.6 4.84a6.2 6.2 0 0 1-2.6 3.82v1.21c.17-.2.3-.31.36-.39.08-.08.17-.15.26-.2.5-.34.95-.5 1.42-.45.45.03.83.28 1.14.73.4.55.47 1.15.24 1.79-.24.63-.72 1.2-1.42 1.7-.32.2-.74.4-1.27.58l-1.03.29-.2-1.02c.42-.12.7-.24.85-.3.34-.12.6-.24.8-.37.36-.25.57-.5.61-.77.05-.27.02-.48-.1-.66a.66.66 0 0 0-.62-.34c-.25 0-.48.09-.68.22-.12.08-.25.18-.32.3-.1.1-.24.24-.34.38l-.64-.1-.07-1.91a5.93 5.93 0 0 1-5.05.72c-1.9-.5-3.62-1.83-5.11-3.99Zm-13.4 1.16 2.45-2.34 11.23 11.78-2.44 2.33L52.54 51.4v-.01Zm-1.05-1.52-1.84-1.9 2.09-2 1.82 1.9-2.07 2Zm-9.82 18.67-2.27-1.78 7.58-9.73 2.16 1.68 3.24 13.21 5.2-6.66 2.25 1.77-7.72 9.9-2.26-1.75-3.18-13.06-5 6.42Zm-1.79 17.89-4.79-4.76 6.65 1.02-1.86 3.74Zm8.24-2.77 1.66-3.3-17.14-2.1-1.72 3.43 11.97 12.48 1.6-3.2-2.51-2.48 2.68-5.36 3.46.53ZM20.5 104.21c-.69.52-1.58.67-2.7.5l.34-1.45c.69.06 1.24-.17 1.61-.7a3 3 0 0 0 .5-1.17c.11-.48.15-.92.1-1.28a1.69 1.69 0 0 0-1.09-1.35l.37-1.45c1.06.37 1.8.93 2.13 1.7a4 4 0 0 1 .15 2.79 4.14 4.14 0 0 1-1.41 2.4v.01ZM32.64 97l8.47 2.07-.53 2.2-2.05-.16c.6.83.97 1.53 1.16 2.12.32.99.32 2.13 0 3.42a6.85 6.85 0 0 1-3.43 4.6c-1.8 1.03-3.97 1.24-6.49.61-2.57-.6-4.44-1.83-5.64-3.62a7.42 7.42 0 0 1-.94-6.16c.5-2 1.4-3.48 2.71-4.45a5.82 5.82 0 0 1 4.34-1.16l-.8 3.25a3.17 3.17 0 0 0-2.71 1.27c-.39.52-.66 1.1-.8 1.74a4.06 4.06 0 0 0 .66 3.49c.76 1.04 2.12 1.81 4.04 2.28 1.93.48 3.4.37 4.44-.32a4.54 4.54 0 0 0 1.95-2.72 4 4 0 0 0-2.48-4.89l-.88 3.65-2.63-.64L32.64 97Zm-8.23 26.1c1.03-.78 2.44-1.15 4.26-1.12 1.85.03 3.26.44 4.21 1.25a3.92 3.92 0 0 1 1.46 3.24 3.95 3.95 0 0 1-1.54 3.19c-1.02.8-2.43 1.17-4.27 1.14-1.83-.03-3.23-.45-4.23-1.27a3.92 3.92 0 0 1-1.42-3.24 3.88 3.88 0 0 1 1.53-3.19Zm4.09 11.07c2.9.06 5.14-.73 6.74-2.34 1.27-1.23 1.96-2.98 1.97-5.32.04-2.32-.55-4.11-1.81-5.36-1.54-1.66-3.74-2.53-6.66-2.56-2.98-.06-5.23.73-6.76 2.33-1.27 1.22-1.94 2.98-2 5.31-.01 2.33.58 4.12 1.83 5.36 1.47 1.68 3.7 2.56 6.69 2.58Zm3.77 16.9-.83-3.9a4.24 4.24 0 0 1-.03-1.67c.15-.75.64-1.19 1.47-1.37.98-.2 1.73.02 2.21.64.27.35.47.87.64 1.56l.78 3.88-4.24.86Zm-6.16 1.28-.71-3.47a5.47 5.47 0 0 1-.15-1.93c.12-.62.55-1.01 1.3-1.17.66-.14 1.18 0 1.53.37.36.37.61.9.74 1.6l.8 3.87-3.5.73h-.01Zm12.36-6.73c-.18-.81-.41-1.54-.7-2.2a4.46 4.46 0 0 0-2.65-2.5 4.85 4.85 0 0 0-4.89.9 3.52 3.52 0 0 0-1.05 2.14 3.7 3.7 0 0 0-1.15-1.02 3.44 3.44 0 0 0-2.5-.25c-.94.19-1.7.6-2.28 1.22-.92 1.04-1.23 2.55-.86 4.5L24 156.1l15.93-3.28-1.46-7.2Zm89.56 63.78A81.4 81.4 0 1 1 128 46.59a81.41 81.41 0 0 1 .03 162.83v-.02Zm0-164.51a83.11 83.11 0 1 0 0 166.2 83.1 83.1 0 0 0 0-166.2Z"/>
  <path fill="#1F357A" d="m128.02 56.32-71.7 71.71h25a38.36 38.36 0 1 0 76.7 0H97.98a38.36 38.36 0 1 1 76.71 0h24.98l-71.66-71.71h.01Z"/>
  <path fill="#00ADEF" d="M174.7 127.96a38.36 38.36 0 1 0-76.71 0H158a38.35 38.35 0 1 1-76.7 0H56.33l71.7 71.72 71.66-71.72H174.7Z"/>
</svg>